<?xml version="1.0" encoding="utf-8"?>
<!-- Generator: Adobe Illustrator 23.1.0, SVG Export Plug-In . SVG Version: 6.00 Build 0)  -->
<svg version="1.1" id="Layer_1" xmlns="http://www.w3.org/2000/svg" xmlns:xlink="http://www.w3.org/1999/xlink" x="0px" y="0px"
	 viewBox="0 0 48.9 41.9" style="enable-background:new 0 0 48.9 41.9;" xml:space="preserve">
<style type="text/css">
	.st0{fill:#129748;}
</style>
<g>
	<path class="st0" d="M0.6,30.3c0,0.8,0.4,1.2,1.2,1.2h0.1c0.9,0,1.8-0.1,2.6-0.1c0.4,0,0.8,0,1.2-0.1l13.5-0.7c0,0,0,0,0.1,0
		l1.5-0.1c1.1-0.1,2.3-0.1,3.4-0.2c2-0.1,4.1-0.2,6.1-0.3c2.2-0.1,4.3-0.2,6.5-0.3c0.8,0,1.2-0.5,1.2-1.3c0-0.6,0-1.3-0.1-2.1
		c0-0.5-0.1-0.9-0.1-1.4c-0.1-1.7-0.2-3.5-0.4-5.2c-0.1-0.6-0.5-1.2-0.8-1.6c-0.6-0.7-1.5-1.1-2.3-1.3c-0.3-0.1-0.4-0.2-0.5-0.5
		c-0.8-1.9-1.7-4-2.7-6.1c-0.3-0.7-0.7-1.5-1.3-2.3c-0.4-0.6-1-0.9-1.8-0.8C27.3,7,26.4,7,25.5,7c-0.4,0-0.7,0-1.1,0.1
		c-1.4,0.1-2.9,0.2-4.3,0.2C16.5,7.5,12.7,7.7,9,7.9C7.2,8,6.6,8.5,6.1,10.1c-0.8,2.3-1.6,4.8-2.4,7.3c-0.2,0.6-0.4,0.9-0.9,1
		c-0.3,0.1-0.5,0.2-0.7,0.4H2c-1.3,0.9-1.9,2-1.9,3.3C0.3,24.9,0.5,27.6,0.6,30.3z M9.5,25c0,0.6-0.3,1.2-0.7,1.6
		c-0.5,0.4-1.1,0.7-1.7,0.7c-1.3,0-2.3-1.1-2.2-2.4c0-1.2,1.1-2.2,2.3-2.2l0,0c0.6,0,1.2,0.3,1.7,0.7C9.3,23.8,9.5,24.4,9.5,25z
		 M8.3,16.9c-0.2,0-0.4,0-0.5,0s-0.2,0-0.2-0.1c0,0,0-0.1,0-0.2C8.1,14.7,8.5,13,9,11.3c0-0.3,0.4-0.4,0.7-0.4
		c2.9-0.2,5.9-0.3,8.8-0.5c1.1-0.1,2.2-0.1,3.2-0.2c1.7-0.1,3.4-0.2,5.1-0.3h0.1c0.4,0,0.7,0.2,0.8,0.6c0.7,1.8,1.3,3.4,1.8,5
		c0.1,0.2,0.1,0.3,0.1,0.3s-0.1,0.1-0.4,0.1c-2.7,0.1-5.3,0.2-8.4,0.4l-3.3,0.1l0,0h-0.8c-2.3,0.1-5.2,0.2-8.2,0.4
		C8.4,16.9,8.4,16.9,8.3,16.9z M12.7,22c2.1-0.1,4.2-0.2,6.3-0.3c2-0.1,4-0.2,6-0.3c1.2-0.1,1.8,0.5,1.8,1.7c0,0.6,0.1,1.3,0.1,1.9
		c0,1-0.5,1.7-1.5,1.7c-3.1,0.2-6.2,0.3-9.2,0.5c-1,0.1-2,0.1-3,0.2c-1.2,0.1-1.9-0.4-2-1.7c0-0.6-0.1-1.2-0.1-1.8
		C11,22.8,11.7,22.1,12.7,22z M31,26c-0.6,0-1.2-0.2-1.6-0.7c-0.4-0.4-0.7-1-0.7-1.6s0.2-1.2,0.7-1.6c0.4-0.4,1.1-0.7,1.7-0.7l0,0
		c1.3,0,2.3,1,2.3,2.3C33.3,25,32.2,26,31,26z"/>
	<path class="st0" d="M48.4,33.5c-0.1,0-0.1,0-0.2-0.1c-0.2-0.1-0.4-0.1-0.6-0.1c-0.5,0-1-0.1-1.6-0.1c-0.1,0-0.2,0-0.3,0v-0.1
		c0.1-0.4,0.1-0.8,0.1-1.3c0-0.2,0-0.4-0.1-0.6c0-0.1,0-0.1-0.1-0.2c0-0.1-0.1-0.2-0.2-0.2c-0.1,0-0.2-0.1-0.3,0c0,0-0.1,0-0.2,0
		c-0.2,0-0.4,0.1-0.6,0.3c-0.2,0.2-0.4,0.4-0.6,0.7c0,0,0,0-0.1,0c-0.1-0.1-0.3-0.3-0.4-0.4c-0.3-0.3-0.7-0.6-1-0.9
		c-0.2-0.2-0.6-0.3-0.9-0.2C41,30.4,41,30.7,40.9,31v0.1c0,0.1,0,0.3,0,0.4v0.1c0.1,0.6,0.1,1.1,0.2,1.7v0.2c-0.2,0-0.4,0.1-0.6,0.2
		C40.3,33.8,40,34,40,34.3c-0.1,0.3,0.2,0.6,0.4,0.7c0.4,0.2,1,0.5,1.6,0.7c0.2,0.1,0.4,0,0.4-0.2c0.1-0.2,0-0.4-0.2-0.4
		c-0.6-0.2-1.1-0.5-1.5-0.7l0,0l0.1-0.1c0.1-0.1,0.3-0.1,0.5-0.1c0.1,0,0.2,0,0.3-0.1c0.2,0,0.3-0.2,0.3-0.4l-0.1-0.5
		c-0.1-0.6-0.1-1.1-0.2-1.7c0-0.1,0-0.1,0-0.2v-0.1c0,0,0,0,0-0.1c0,0,0-0.1,0-0.2c0,0,0.1,0,0.1,0.1c0.3,0.3,0.7,0.6,1,0.9
		c0.1,0.1,0.3,0.3,0.4,0.4c0.1,0,0.1,0.1,0.2,0.2c0,0,0.1,0.1,0.2,0.1c0.1,0.1,0.2,0.1,0.3,0.1s0.2-0.1,0.2-0.1
		c0.1-0.1,0.2-0.2,0.2-0.3c0.2-0.2,0.3-0.4,0.5-0.6c0,0,0.1,0,0.1-0.1c0,0.1,0,0.1,0,0.2c0,0.4-0.1,0.8-0.1,1.2c0,0.2,0,0.3-0.1,0.5
		c0,0.1,0,0.2,0.1,0.3s0.2,0.1,0.2,0.1c0.2,0,0.4,0,0.6,0c0.5,0,1,0,1.6,0.1c0.1,0,0.2,0,0.4,0.1l-1.7,1.4c-0.1,0.1-0.1,0.1-0.1,0.2
		c0,0.1,0,0.2,0.1,0.3s0.2,0.2,0.3,0.4c0.3,0.3,0.5,0.6,0.8,0.9l0.1,0.1c0,0-0.1,0.1-0.2,0.1c-0.4,0.1-0.7,0.1-1.1,0.1
		c-0.2,0-0.3,0-0.5,0.1c-0.2,0-0.3,0.2-0.3,0.4s0.2,0.3,0.3,0.3l0,0c0.2,0,0.3,0,0.5-0.1c0.4,0,0.8-0.1,1.1-0.1s0.6-0.2,0.7-0.5
		c0.2-0.4-0.2-0.8-0.2-0.9c-0.3-0.3-0.5-0.6-0.8-1l-0.1-0.1l1.6-1.3c0.1-0.1,0.1-0.2,0.1-0.3v-0.4C48.7,33.6,48.6,33.5,48.4,33.5z"
		/>
	<path class="st0" d="M32.6,6.5c0,0-0.1,0-0.2,0.1c-0.2,0.1-0.2,0.3-0.2,0.5c0.1,0.1,0.2,0.2,0.3,0.2h0.1c0.1,0,0.1,0,0.1-0.1
		C32.9,7.1,33,7,33.1,7c1.2-0.7,2.4-1.3,3.5-2l0.1-0.1c0.2-0.1,0.2-0.3,0.1-0.5s-0.3-0.2-0.5-0.1l-0.1,0.1C35,5.1,33.8,5.7,32.6,6.5
		C32.7,6.4,32.6,6.5,32.6,6.5z"/>
	<path class="st0" d="M30,4.6h0.1c0.1,0,0.3-0.1,0.3-0.2C31,3.1,31.6,1.8,32,0.7c0.1-0.2,0-0.4-0.2-0.5s-0.4,0-0.5,0.2
		c-0.5,1.1-1,2.4-1.6,3.7C29.7,4.3,29.8,4.5,30,4.6z"/>
	<path class="st0" d="M31.6,5.3c0.1,0.1,0.1,0.1,0.2,0.1s0.2,0,0.3-0.1l0.6-0.7c0.5-0.7,1.1-1.3,1.6-2c0.1-0.1,0.1-0.2,0.2-0.3
		l0.1-0.1c0.1-0.2,0-0.4-0.1-0.5c-0.2-0.1-0.4,0-0.5,0.1c0,0.1-0.1,0.1-0.1,0.2s-0.1,0.1-0.1,0.2c-0.5,0.7-1.1,1.3-1.6,2l-0.6,0.7
		C31.4,5,31.4,5.2,31.6,5.3z"/>
	<path class="st0" d="M18.6,14.5c0.2,0,0.3-0.1,0.3-0.3s-0.1-0.4-0.3-0.4c-1.5-0.3-3-0.6-4.6-0.8c-0.2,0-0.4,0.1-0.4,0.3
		s0.1,0.4,0.3,0.4C15.5,14,17.1,14.2,18.6,14.5L18.6,14.5z"/>
	<path class="st0" d="M18,12.5l0.9,0.2c1.1,0.2,2.2,0.4,3.2,0.6c0.1,0,0.2,0,0.2,0c0.1,0,0.2,0,0.4,0.1c0,0,0,0,0.1,0
		c0.2,0,0.3-0.1,0.3-0.3s-0.1-0.4-0.3-0.4c-0.1,0-0.2,0-0.3-0.1c-0.1,0-0.2,0-0.3,0c-1.1-0.2-2.1-0.4-3.2-0.6l-0.9-0.2
		c-0.2,0-0.4,0.1-0.4,0.3C17.6,12.3,17.8,12.4,18,12.5z"/>
	<path class="st0" d="M31,22.2L31,22.2c-0.8,0-1.5,0.6-1.5,1.5c0,0.8,0.6,1.5,1.4,1.5c0,0,0,0,0.1,0c0.4,0,0.8-0.2,1-0.4
		c0.3-0.3,0.5-0.7,0.5-1.1C32.5,22.9,31.8,22.2,31,22.2z M31.5,24.3c-0.2,0.2-0.4,0.2-0.6,0.2c-0.4,0-0.8-0.4-0.8-0.8
		s0.4-0.8,0.8-0.8l0,0c0.4,0,0.8,0.4,0.8,0.8C31.8,23.9,31.7,24.1,31.5,24.3z"/>
	<path class="st0" d="M7.2,23.5c-0.8,0-1.5,0.7-1.5,1.5c0,0.4,0.1,0.8,0.4,1.1c0.3,0.3,0.7,0.5,1.1,0.5l0,0c0.4,0,0.8-0.2,1.1-0.4
		c0.3-0.3,0.4-0.6,0.4-1s-0.2-0.8-0.4-1.1C8,23.7,7.6,23.5,7.2,23.5L7.2,23.5z M8,25c0,0.2-0.1,0.4-0.2,0.6
		c-0.1,0.1-0.4,0.2-0.6,0.2l0,0c-0.2,0-0.4-0.1-0.6-0.2c-0.1-0.2-0.2-0.3-0.2-0.6c0-0.4,0.4-0.8,0.8-0.8l0,0c0.2,0,0.4,0.1,0.6,0.2
		C7.9,24.6,8,24.8,8,25z"/>
	<path class="st0" d="M47.5,41L47.5,41c-2.2,0-4.5,0-6.7,0c0.2-0.1,0.5-0.2,0.7-0.4c1.6-1.2,1.6-3.4,0-4.6c-1.2-0.9-2.6-1-3.9-0.3
		c-1.1,0.5-1.7,1.4-1.7,2.7c0,1.2,0.7,2.1,1.8,2.6c0,0,0,0,0.1,0c-0.9,0-1.7,0-2.6,0c0.2-0.2,0.3-0.6,0.4-1v-3.3
		c-0.2-1-0.5-1.3-1.6-1.3c-3.6,0-7.1,0-10.7,0c-0.7,0-1.4,0.2-2,0.6c-0.1,0.1-0.4,0.1-0.6,0c-1.5-0.9-3.1-1.7-4.6-2.6
		C15.3,33,15,33,14.4,33.7c-1.5,1.7-2.9,3.5-4.4,5.2c-0.2,0.3-0.5,0.4-0.8,0.4c-1.5,0-2.9,0-4.4,0c-0.7,0-1.2,0.4-1.2,1.1
		c0,0.3,0.1,0.6,0.3,0.8c-1.1,0-2.3,0-3.4,0l0,0c-0.2,0-0.3,0.2-0.3,0.3c0,0.2,0.2,0.3,0.3,0.3c5.4,0,10.8,0,16.1,0h7.3c2,0,4,0,6,0
		c5.9,0,11.8,0,17.7,0c0.2,0,0.3-0.2,0.3-0.3C47.9,41.2,47.7,41,47.5,41z"/>
	<path class="st0" d="M29.2,32.3c0.1,0.7,0.7,1.3,1.4,1.3c0.6,0,1.2,0,1.7-0.1c0.7-0.1,1.3-0.7,1.3-1.4c0-0.5-0.1-0.9-0.1-1.4
		c-1.5,0.1-2.9,0.2-4.4,0.2C29.2,31.4,29.2,31.9,29.2,32.3z"/>
	<path class="st0" d="M5.4,33.5c0.1,0.9,0.8,1.5,1.7,1.4c0.4,0,0.9,0,1.3-0.1c0.6,0,1.3-0.5,1.4-1.1c0.1-0.6,0-1.1,0-1.8
		c-1.5,0.1-3,0.2-4.5,0.2C5.4,32.7,5.4,33.1,5.4,33.5z"/>
</g>
</svg>
