<?xml version="1.0" encoding="utf-8"?>
<!-- Generator: Adobe Illustrator 23.1.0, SVG Export Plug-In . SVG Version: 6.00 Build 0)  -->
<svg version="1.1" id="Layer_1" xmlns="http://www.w3.org/2000/svg" xmlns:xlink="http://www.w3.org/1999/xlink" x="0px" y="0px"
	 viewBox="0 0 60.1 37.8" style="enable-background:new 0 0 60.1 37.8;" xml:space="preserve">
<style type="text/css">
	.st0{fill:#129748;}
</style>
<g id="ambulance-expenses" transform="translate(0.2 -11.1)">
	<path id="Path_13" class="st0" d="M3.4,36v-7.9c-0.1-1.6,1.1-3,2.7-3.1c0.1,0,0.3,0,0.4,0H10c0.5,0.1,0.9-0.2,1-0.7
		c1-3.3,2-6.5,3-9.8c0.4-2.1,2.4-3.5,4.5-3.4h37.8c2.2,0,3.6,1.2,3.6,3.7v26.6h-6c-0.6-4.6-3.8-7.7-8.2-8c-2-0.2-4,0.4-5.6,1.6
		c-2.1,1.5-3.4,3.8-3.6,6.4h-9.7c-0.4-4.4-4-7.8-8.4-8c-1.9-0.1-3.8,0.4-5.3,1.5c-2.2,1.5-3.6,3.9-3.8,6.5H1.2
		c-0.8,0-1.4-0.6-1.4-1.4v-1.7c-0.1-0.8,0.5-1.5,1.3-1.6c0.1,0,0.2,0,0.3,0h1.8V36H3.4z M26.1,23.2v-9.1h-7.2
		c-0.7-0.1-1.3,0.3-1.5,1L15,22.9v0.3L26.1,23.2z M37.5,24.2h3.4v3.4H45v-3.4h3.4v-4.1H45v-3.4h-4.2v3.4h-3.4L37.5,24.2L37.5,24.2z"
		/>
	<path id="Path_14" class="st0" d="M38.4,42.2c0-3.7,3-6.7,6.7-6.7c3.7,0,6.7,3,6.7,6.7c0,3.7-2.9,6.6-6.6,6.7
		C41.5,48.8,38.5,45.9,38.4,42.2 M47.2,42.2c0-1.1-0.9-2.1-2-2.1c0,0-0.1,0-0.1,0c-1.2,0-2.1,0.9-2.1,2.1c0,1.1,0.8,2,1.9,2
		c0.1,0,0.1,0,0.2,0C46.2,44.2,47.2,43.4,47.2,42.2C47.2,42.2,47.2,42.2,47.2,42.2"/>
	<path id="Path_15" class="st0" d="M24.6,42c0,3.7-2.9,6.7-6.6,6.7c-3.7,0-6.7-2.9-6.7-6.6l0,0c-0.1-3.7,2.8-6.7,6.5-6.8
		c0.1,0,0.1,0,0.2,0C21.6,35.4,24.5,38.4,24.6,42 M20,42.1c0-1.1-0.8-2.1-2-2.1c0,0,0,0,0,0c-1.1,0-2.1,0.9-2.1,2c0,0,0,0.1,0,0.1
		c0,1.1,0.8,2.1,2,2.1c0,0,0,0,0,0c1.1,0.1,2-0.8,2.1-1.9C20,42.2,20,42.2,20,42.1"/>
	<path id="Path_16" class="st0" d="M14.9,23.2H26V14h-7.2c-0.7-0.1-1.3,0.3-1.5,1l-2.4,7.8C14.9,23,14.9,23.1,14.9,23.2"/>
	<path id="Path_17" class="st0" d="M37.4,20.1v4.1h3.4v3.5H45v-3.4h3.4v-4.2H45v-3.4h-4.2v3.4H37.4z"/>
	<path id="Path_18" class="st0" d="M45.1,44.2c1.1,0.1,2-0.7,2.1-1.8c0-0.1,0-0.1,0-0.2c0-1.1-0.9-2.1-2-2.1c0,0-0.1,0-0.1,0
		c-1.2,0-2.1,0.9-2.1,2.1C43,43.3,43.9,44.2,45.1,44.2C45.1,44.2,45.1,44.2,45.1,44.2"/>
	<path id="Path_19" class="st0" d="M17.9,44.2c1.1,0.1,2-0.8,2.1-1.9c0-0.1,0-0.1,0-0.2c0-1.1-0.8-2.1-2-2.1c0,0,0,0,0,0
		c-1.1,0-2.1,0.9-2.1,2c0,0,0,0.1,0,0.1c-0.1,1.1,0.7,2,1.8,2.1C17.8,44.2,17.8,44.2,17.9,44.2"/>
</g>
</svg>
