<?xml version="1.0" encoding="utf-8"?>
<!-- Generator: Adobe Illustrator 23.1.0, SVG Export Plug-In . SVG Version: 6.00 Build 0)  -->
<svg version="1.1" id="Layer_1" xmlns="http://www.w3.org/2000/svg" xmlns:xlink="http://www.w3.org/1999/xlink" x="0px" y="0px"
	 viewBox="0 0 600 600" style="enable-background:new 0 0 600 600;" xml:space="preserve">
<style type="text/css">
	.st0{fill:#129748;}
</style>
<g>
	<path class="st0" d="M213.3,553.7c-3.8-1.9-7.9-3.2-11.3-5.6c-10-7-13.4-19.1-9.5-31.9c9.8-32.3,19.6-64.6,29.6-96.9
		c1.2-3.9,0.7-6-2.6-8.4c-13.2-9.6-26.2-19.5-40.1-28.9c0.5,1.1,0.9,2.3,1.5,3.3c6.8,11.3,13.8,22.4,20.5,33.7
		c8.1,13.5,6.2,27-5.6,37.5c-29.1,26-58.1,52-87.4,77.7C91.6,549,67.5,542,62.3,521.1c-2.8-11.2,0.9-20.7,9.5-28.3
		c22.3-19.9,44.7-39.7,67.1-59.6c1.3-1.2,2.6-2.4,4.1-3.8c-9.2-15.1-18.4-30.1-27.5-45.1C105.7,368.2,96,352,86,336
		c-5.5-8.8-6.3-17.6-3.2-27.5c4-12.9,7.3-26,10.5-39.1c0.8-3.4,2.4-4.6,5.6-5c26.8-3.2,53.7-6.5,80.5-9.8c1.8-0.2,3.8-0.1,5.2-1
		c5.9-3.9,10.6-1,15.6,2c4.5,2.8,9.2,5.3,14,7.7c3,1.5,3.9,3.1,2.9,6.7c-4.9,17.6-9.4,35.4-14.2,53c-1.1,4-0.5,6.2,3,8.8
		c21.6,15.9,43.1,32.1,64.6,48.3c11.9,9,15.5,19.6,11.2,33.8c-11.7,38.8-23.8,77.5-35.2,116.3c-3.5,12-10.7,19.6-22.3,23.6
		C220.4,553.7,216.8,553.7,213.3,553.7z"/>
	<path class="st0" d="M160.9,6.7c5.9,2.7,9.6,7.5,12,13.4c2.6,6.3,2,12.2-2.2,17.6c-1.8,2.4-3.6,4.9-5.7,7c-3,3-3.8,6.2-2,10.1
		c0.6,1.3,1.4,3.1,0.9,4c-1.1,2.2-2.6,4.5-4.6,5.9c-0.7,0.5-3.7-1.4-4.8-2.8c-3.6-4.7-3.5-13.5-0.1-18.5c2.5-3.7,5.2-7.2,7.9-10.7
		c2.8-3.7,2.2-7.3-0.5-10.7c-2.1-2.6-4.2-5.9-8.2-4.2s-8.4,3.3-8.1,9.2c0.2,4-3.9,8.3-7.1,7.5c-4.1-1.1-3.9-4.6-3.4-7.8
		c1.1-6.4,3.9-11.8,9.6-15.3c2.6-1.6,5.1-3.1,7.7-4.7C155.2,6.7,158.1,6.7,160.9,6.7z"/>
	<path class="st0" d="M375.7,232.1c-7.4-0.5-14.8-1-22.2-1.6c-4.2-0.3-8.4-0.9-13.4-1.4c1.5,6,2.8,11.3,4.4,17.6
		c-15.7-3.8-30.7-7.4-45.7-11c0.1-0.6,0.2-1.1,0.3-1.7c12.6,1.5,25.1,3.1,38.4,4.7c-1.7-5.3-3.2-9.9-4.5-14c14.3,0,28.5,0,42.6,0
		C375.7,227.1,375.7,229.6,375.7,232.1z"/>
	<path class="st0" d="M41.3,321.9c2.1-3.8,4.1-7.8,6.4-11.4c0.6-0.9,2.5-1,3.8-1.4c-0.1,1.3,0.3,2.9-0.3,3.7
		c-7,9.1-7.1,17.7,0.8,26.3c0.7,0.7,0.3,2.5,0.5,3.7c-1.2-0.3-3.1-0.1-3.6-0.9c-2.7-4.1-5.1-8.4-7.5-12.6
		C41.3,326.8,41.3,324.4,41.3,321.9z"/>
	<path class="st0" d="M236.2,185.2c17.1,11.8,29.2,27.6,38.7,45.3C280.5,241,285,252,289.6,263c3.2,7.8,1.2,15.4-4.6,20.4
		c-5.9,5.1-13.4,5.8-20.9,1.7c-22-12.1-43.9-24.3-65.8-36.4c-0.7-0.4-1.4-1-0.8-0.6c1.4-7.1,4.1-13.6,3.3-19.6
		c-0.8-5.8-5.1-11.2-8.2-17.3c4.2-2.1,9.5-0.9,14.5,1.8c9.4,5.1,18.7,10.3,28,15.5c2.2,1.2,4.4,2.4,6.7,3.6c2.5-3.1,1.7-4.9-1.6-6.7
		c-10.3-5.5-20.6-11.3-30.8-17c-7.6-4.2-15.2-4.5-22.9-0.4c-0.9,0.5-1.9,1.1-2.9,1.2c-24,2.6-48,5-72,7.8c-2.7,0.3-5.2,2.4-7.8,3.7
		c0.2,0.7,0.5,1.3,0.7,2c7.8-0.9,15.7-1.7,23.5-2.7c15.7-1.9,31.4-3.9,47.1-5.9c10.9-1.4,20,5.3,21.2,15.4
		c1.2,10-5.7,18.3-16.6,19.7c-36.4,4.6-72.7,9.1-109.1,13.6c-7.9,1-14.6-1-19-7.9s-3.3-13.7,0.8-20.6c14.8-24.5,31.4-47.5,54.5-65.1
		c9.4-7.2,19.7-12.6,31.6-14.7c7.4-1.3,9.5-0.2,12.2,6.8c12.6,33.1,52.3,45.9,81.8,26.4C233.5,187.1,234.6,186.3,236.2,185.2z"/>
	<path class="st0" d="M152.2,142.2c0-27.4,22.1-49.6,49.5-49.8c27.4-0.2,50.1,22.5,50,49.9c-0.1,27.6-22.5,49.8-50.1,49.7
		C174.2,191.9,152.2,169.7,152.2,142.2z"/>
	<path class="st0" d="M237.1,47.2c2.1-7,3.7-12.8,5.6-18.5c0.6-1.6,2.1-3.8,3.4-3.9c1.3-0.1,3.3,1.8,4,3.2
		c3.3,6.7,6.3,13.5,9.8,21.1c6.2-7.1,12-13.7,17.9-20.3c1.1-1.2,1.9-2.7,3.2-3.6c1.4-1,3.3-1.5,4.9-2.1c0.7,1.7,2,3.4,1.8,5.1
		c-0.7,10.1-1.7,20.1-2.7,31c8.9-2.4,17.2-4.7,25.6-6.7c2-0.5,4.2,0.2,6.4,0.4c-0.5,2.1-0.5,4.4-1.6,6.1
		c-5.1,7.7-10.4,15.2-16.2,23.6c8,1.5,15.4,2.9,22.8,4.3c1.4,0.3,2.9,0.3,4.1,0.9c1.3,0.7,3.3,2.1,3.1,2.9c-0.2,1.4-1.5,3.2-2.9,3.9
		c-7.8,4.3-15.7,8.3-23.6,12.4c-2.2,1.1-4.3,2.3-7,3.7c4.5,5.1,8.7,9.6,12.6,14.4c1.1,1.3,1.3,3.4,1.9,5.1c-1.7,0.6-3.5,1.7-5.2,1.7
		c-7.1-0.2-14.2-0.6-21.3-1.4c-1.7-0.2-3.2-2.3-4.8-3.6c1.8-1,3.5-2.7,5.3-2.8c4.5-0.2,9,0.4,14.9,0.7c-3.9-4.5-6.8-8-10-11.3
		c-3.2-3.4-2.6-5.7,1.5-7.8c8-4.1,16-8.3,25.2-13.1c-7.8-1.4-14.2-2.5-20.5-3.7c-5.9-1.1-6.6-2.8-3.2-7.8
		c4.3-6.3,8.6-12.6,12.4-20.1c-5.3,1.5-10.6,2.9-15.9,4.4c-10.9,3-11.1,2.8-10.3-8.5c0.2-3.2,0.6-6.4,0.9-9.6s0.5-6.4,0.9-11.2
		c-5.3,6-9.7,11-14.1,16c-1.3,1.5-2.6,2.9-3.9,4.4c-2.9,3.2-5.2,2.6-6.9-1.1c-2.6-5.6-5.2-11.2-8.4-18c-1.8,5.9-3.2,10.7-4.8,15.5
		c-1.6,4.7-3.7,5.4-7.2,1.8c-4.7-4.8-9-10-13.4-15c-0.7,0.5-1.4,1-2.1,1.5c0.9,5.3,2.2,10.5,2.7,15.9c0.2,2-1.3,4.2-1.9,6.2
		c-1.5-1.6-3.8-3-4.3-4.8c-1.9-8.5-3.4-17.1-4.8-25.7c-0.3-1.8,0.8-3.8,1.2-5.8c2,0.8,4.3,1.1,5.8,2.4
		C224.5,34.9,230.4,40.8,237.1,47.2z"/>
	<path class="st0" d="M370,162.5c1.5,2.8,2.8,5.3,4.3,8.3c-12.8,5.6-25.3,11-39.1,17.1c5.7,4.9,10.8,9.3,17.1,14.7
		c-19.6,5.7-37.3,10.9-55,16c-0.3-0.6-0.5-1.2-0.8-1.8c6.9-2.9,13.8-5.9,20.8-8.8c7.2-3,14.4-6,22.1-9.2c-5-4.4-9.5-8.4-14.5-12.9
		C340.2,177.9,354.9,170.3,370,162.5z"/>
	<path class="st0" d="M316.2,174.2c-12.1,10.8-23.5,20.9-34.8,31.1c-0.4-0.4-0.9-0.8-1.3-1.2c8.4-9.4,16.8-18.7,25.8-28.8
		c-5.3-1.6-9.9-3-15.4-4.6c8.6-11.4,17-22.5,25.5-33.8c2.3,1.7,4.1,3.1,6.2,4.7c-7.6,8.8-14.9,17.3-22.7,26.3
		C305.1,170.1,310.2,172,316.2,174.2z"/>
	<path class="st0" d="M115.3,32.4c0.7,0.8,2.5,2.1,3.1,3.8c4.4,12,8.5,24.1,12.5,36.2c0.4,1.2-0.6,4-1.4,4.2c-1.9,0.5-4.3,0.3-6-0.5
		c-1.3-0.7-2.1-2.8-2.8-4.4c-4.2-9.8-8.4-19.6-12.4-29.5C106.4,37.6,109.8,32.2,115.3,32.4z"/>
	<path class="st0" d="M223.7,307.8c-1.8-0.3-4.3-0.5-6.7-1.2c-1-0.3-1.6-1.6-2.4-2.4c1.1-0.6,2.1-1.4,3.3-1.7
		c0.8-0.2,1.7,0.2,2.6,0.3c9.9,1.4,16-2,20.4-10.7c0.8-1.5,2.6-2.5,4-3.7c0,1.9,0.5,4.1-0.2,5.7C240.9,302.9,234,307.5,223.7,307.8z
		"/>
	<path class="st0" d="M110.1,130.6c-9.6-0.2-15.1,3.6-18.7,12.7c-0.6,1.5-2.2,2.6-3.4,3.9c-0.2-1.9-1.1-4-0.6-5.6
		c3.5-11,12.7-16.6,24.9-15.2c1.5,0.2,2.9,1.8,4.4,2.7c-1.5,0.5-3,1.2-4.5,1.6C111.6,130.8,110.9,130.6,110.1,130.6z"/>
	<path class="st0" d="M172.9,73.3c0,5.7-4.6,10.5-8.7,10.5c-3.2,0-5.5-1.3-5.5-4.9c0-5.2,4.6-9.3,10.3-8.7
		C170.6,70.3,172.1,72.6,172.9,73.3z"/>
	<path class="st0" d="M141.7,92.1c-2.4,2.1-4.6,5.6-7.3,6.1c-4,0.7-5.4-3.1-5.5-6.8c-0.1-4.2,1.6-6.7,6.2-6.8
		C139.6,84.5,139.9,87.8,141.7,92.1z"/>
	<path class="st0" d="M218.9,292.8c7.5,0.5,11.1-2.1,13.5-7.2c0.6-1.3,2.2-2,3.4-3c0.2,1.6,0.9,3.3,0.4,4.7
		c-2.2,6.8-8.3,10.8-15.6,9.9c-1.7-0.2-3.2-1.9-4.8-2.9C217.3,293.5,218.8,292.8,218.9,292.8z"/>
	<path class="st0" d="M116.5,139.6c-1.2,0.4-2.3,1.2-3.5,1.1c-6.7-0.5-10.7,2.5-12.7,8.9c-0.3,1-1.8,1.6-2.8,2.5
		c-0.5-1.1-1.5-2.4-1.3-3.4c1.1-7.9,8.9-13.6,16.6-12.3c1.3,0.2,2.5,1.1,3.7,1.7C116.6,138.6,116.5,139.1,116.5,139.6z"/>
	<path class="st0" d="M51.5,325.9c1.8-4.1,3-7.3,4.7-10.3c0.5-0.9,2.2-1,3.4-1.5c0.1,1.2,0.7,2.8,0.2,3.6
		c-3.9,5.7-3.6,10.8,1.2,15.8c0.7,0.7,0.4,2.4,0.6,3.6c-1.2-0.2-3,0-3.6-0.7C55.7,333.1,53.7,329.6,51.5,325.9z"/>
</g>
</svg>
