<?xml version="1.0" encoding="utf-8"?>
<!-- Generator: Adobe Illustrator 23.1.0, SVG Export Plug-In . SVG Version: 6.00 Build 0)  -->
<svg version="1.1" id="Layer_1" xmlns="http://www.w3.org/2000/svg" xmlns:xlink="http://www.w3.org/1999/xlink" x="0px" y="0px"
	 viewBox="0 0 55.9 56.3" style="enable-background:new 0 0 55.9 56.3;" xml:space="preserve">
<style type="text/css">
	.st0{fill:#129748;}
</style>
<g>
	<path class="st0" d="M15.2,23.8c-0.3-1.5-0.6-3-1-4.4c-1.2-5-2.5-10-3.7-14.9C10.4,4,10.2,3.9,9.8,3.9c-1.1,0-2.2,0-3.3,0
		C5.2,3.9,4.4,3.1,4.4,2s0.8-1.9,2-1.9c1.7,0,3.4,0,5.1,0c1.3,0,1.9,0.5,2.2,1.7c1,3.9,1.9,7.8,2.9,11.6c0.1,0.5,0.3,0.7,0.9,0.7
		c6.4,0,12.7,0,19.1,0c1.1,0,1.8,0.5,2,1.5c0.3,1.2-0.6,2.2-1.7,2.3c-0.6,0-1.3,0-2,0c0,1.4,0,2.7,0,4.1c0.2,0,0.4,0,0.6,0
		c1.9,0,3.8,0,5.6,0c2.7,0,4.8,2.1,4.8,4.8c0,6,0,12.1,0,18.1c0,0.1,0,0.1,0,0.2c-0.1-0.1-0.3-0.2-0.4-0.3c-0.8-0.8-1.8-1.3-2.9-1.7
		c-0.4-0.1-0.5-0.3-0.5-0.7c0-0.6,0-1.1,0-1.7c-3.2,0-6.3,0-9.4,0c-0.5,5.4-2.9,9.7-7.4,12.8c-3.3,2.2-6.9,3-10.8,2.5
		C7,55.1,0.9,48.7,0.4,41.1c-0.3-4.4,1-8.3,3.8-11.6C7.1,26.2,10.7,24.3,15.2,23.8z M16.5,52.8c7,0,12.8-5.7,12.9-12.6
		c0.1-7.1-5.6-13-12.6-13c-7.2-0.1-13,5.5-13.1,12.7C3.7,46.9,9.5,52.8,16.5,52.8z M18.7,22c4.1,0,8.2,0,12.4,0c0-1.4,0-2.7,0-4
		c-4.5,0-8.9,0-13.3,0C18,19.3,18.4,20.6,18.7,22z"/>
	<path class="st0" d="M40.3,45.1c3.1,0,5.5,2.5,5.5,5.5c0,3.1-2.5,5.5-5.5,5.5s-5.5-2.5-5.5-5.5S37.3,45.1,40.3,45.1z M40.4,53.2
		c1.4,0,2.6-1.2,2.6-2.6c0-1.4-1.2-2.6-2.6-2.6c-1.4,0-2.6,1.2-2.6,2.6C37.7,52.1,38.9,53.2,40.4,53.2z"/>
	<path class="st0" d="M47.9,52.5c0.1-0.6,0.1-1.2,0.1-1.8s-0.1-1.2-0.1-1.8c0,0,0.1,0,0.2,0c1.9,0,3.8,0,5.7,0c1,0,1.8,0.8,1.8,1.7
		c0.1,1-0.6,1.9-1.6,2c-1.9,0.1-3.8,0-5.7,0C48.3,52.5,48.1,52.5,47.9,52.5z"/>
	<path class="st0" d="M23.6,34c-1.3,1.3-2.5,2.5-3.7,3.8c-0.2,0.2-0.3,0.4-0.1,0.7c0.2,0.3,0.2,0.6,0.7,0.6c1.6,0,3.1,0,4.7,0
		c0.2,0,0.4,0,0.7,0C25.5,37.1,24.8,35.5,23.6,34z M7.5,39.1c1.9,0,3.7,0,5.5,0c0.1,0,0.3-0.1,0.3-0.2c0.3-0.4,0.4-0.8-0.2-1.3
		c-0.5-0.4-0.9-0.9-1.4-1.3c-0.7-0.7-1.4-1.4-2.2-2.2C8.3,35.5,7.6,37.1,7.5,39.1z M25.7,40.8c-1.9,0-3.7,0-5.5,0
		c-0.3,0-0.6,0.9-0.4,1.1c1.3,1.3,2.6,2.6,3.9,3.9C24.8,44.3,25.5,42.7,25.7,40.8z M9.5,45.7c1.3-1.3,2.5-2.5,3.7-3.7
		c0.3-0.3,0.2-0.5,0.1-0.8c-0.1-0.4-0.3-0.4-0.7-0.4c-1.3,0-2.6,0-3.9,0c-0.4,0-0.9,0-1.3,0C7.6,42.6,8.3,44.2,9.5,45.7z M15.6,49
		c0-0.2,0-0.3,0-0.4c0-1.6,0-3.3,0-4.9c0-0.4-0.2-0.5-0.5-0.6c-0.3-0.2-0.5,0-0.7,0.2c-1.1,1.1-2.3,2.3-3.4,3.4
		c-0.1,0.1-0.2,0.2-0.3,0.3C12.2,48.1,13.7,48.8,15.6,49z M22.4,46.9c-0.1-0.1-0.2-0.2-0.2-0.3c-1.2-1.2-2.3-2.3-3.5-3.5
		C18.5,43,18.4,42.9,18,43c-0.3,0.2-0.5,0.3-0.5,0.7c0,1.6,0,3.1,0,4.7c0,0.2,0,0.4,0,0.6C19.4,48.8,21,48.1,22.4,46.9z M18.3,36.8
		c1.4-1.4,2.7-2.7,4.1-4.1c-1.3-1.1-2.9-1.8-4.8-2c0,1.7,0,3.3,0,4.9C17.5,36.4,17.7,36.8,18.3,36.8z M14.8,36.9
		c0.8-0.3,0.8-0.3,0.8-1.2c0-1.4,0-2.9,0-4.3c0-0.2,0-0.4,0-0.6c-1.8,0.2-3.4,0.9-4.8,2C12.1,34.2,13.5,35.5,14.8,36.9z M16.6,41.8
		c1,0,1.9-0.9,1.9-1.9S17.6,38,16.6,38s-1.9,0.9-1.9,1.9C14.7,40.9,15.5,41.8,16.6,41.8z"/>
</g>
</svg>
