<?xml version="1.0" encoding="utf-8"?>
<!-- Generator: Adobe Illustrator 23.1.0, SVG Export Plug-In . SVG Version: 6.00 Build 0)  -->
<svg version="1.1" id="Layer_1" xmlns="http://www.w3.org/2000/svg" xmlns:xlink="http://www.w3.org/1999/xlink" x="0px" y="0px"
	 viewBox="0 0 39.7 37.8" style="enable-background:new 0 0 39.7 37.8;" xml:space="preserve">
<style type="text/css">
	.st0{fill:#129748;}
</style>
<g id="surgical-expenses_" transform="translate(0.035 -1.295)">
	<path id="Path_8" class="st0" d="M29.8,39.1h0.7c4.4-0.1,6.6-2.8,5.5-7c-0.5-2.1-1.4-4.1-2.6-5.9c-5-7.3-12.1-12.8-20.3-15.8
		c-2.7-1.1-5.6-1.6-8.4-1.3c-2.8,0.2-4.9,2.6-4.7,5.3C0,14.8,0,15,0.1,15.3c0.4,2.4,1.4,4.7,2.8,6.7c4,5.7,9.3,10.4,15.5,13.7
		C21.9,37.6,25.8,38.8,29.8,39.1 M2.4,9.1C5.1,7.9,8.2,7.8,11,8.8c8.4,2.4,15.4,7.4,21.2,13.9c3.1,3.6,5.9,7.4,5.6,12.7
		c1.4-1.1,2.1-3,1.7-4.8c-0.6-3.2-2-6.3-4.2-8.7c-1.9-2.3-4-4.5-6.1-6.7c0.6-0.3,1.3-0.6,1.8-1c4-2.5,6.3-5.9,5.9-10.8
		c0-1.2-1-2.1-2.2-2.1c0,0-0.1,0-0.1,0c-1.2,0-2.1,0.9-2.1,2.1c0,0.1,0,0.2,0,0.2c0.3,3.7-1.6,6-4.7,7.6c-0.9,0.5-1.8,0.8-2.3,1.1
		c-3.6-1.8-6.9-3.6-10.4-5.1C12.5,6,9.6,5.6,6.8,5.9C4.8,5.9,3,7.2,2.4,9.1"/>
	<path id="Path_9" class="st0" d="M29.8,39.1c-4-0.3-7.9-1.5-11.3-3.5C12.2,32.4,6.9,27.7,3,21.9c-1.4-2-2.4-4.3-2.8-6.7
		c-0.6-2.7,1-5.4,3.7-6c0.3-0.1,0.6-0.1,0.9-0.1c2.9-0.3,5.8,0.1,8.4,1.3c8.2,3,15.3,8.6,20.2,15.8c1.2,1.8,2.1,3.8,2.6,5.9
		c1.1,4.2-1.2,6.9-5.5,7L29.8,39.1 M12.7,24.5c-2.1,0-2.9,1.2-2.3,2.8c1,2.4,5.6,5.5,8.2,5.5c0.8,0.1,1.5-0.4,1.6-1.2
		c0-0.1,0-0.2,0-0.4c0-0.5-0.1-1.1-0.3-1.6C18.6,26.7,15.9,24.8,12.7,24.5 M11.9,21.5c1.4,0,2-1,1.6-2.6c-0.9-3-4.8-5.8-8-5.7
		c-1.7,0.1-2.4,1.3-1.8,2.8C4.8,18.4,9.4,21.5,11.9,21.5 M25.5,27c-2-0.1-2.9,1.1-2.2,2.8c1,2.4,5.5,5.5,8.2,5.5
		c0.8,0.1,1.6-0.5,1.7-1.3c0-0.2,0-0.3,0-0.5c-0.1-0.5-0.2-1-0.4-1.5C31.2,28.7,28.5,27.4,25.5,27 M23.7,24.1c1.7,0,2.3-0.5,2.3-1.7
		c0-0.4-0.1-0.8-0.2-1.1c-1.3-3.1-4.4-5.2-7.8-5.3c-1.7,0.1-2.6,1.3-1.8,2.9C17.9,21.9,21,23.1,23.7,24.1"/>
	<path id="Path_10" class="st0" d="M2.4,9.1C3,7.2,4.8,5.9,6.8,5.8c2.9-0.3,5.7,0.2,8.4,1.3c3.5,1.5,6.8,3.3,10.4,5.1
		c0.5-0.3,1.5-0.6,2.3-1.1c3.1-1.6,5-3.9,4.7-7.6c-0.1-1.1,0.7-2.2,1.8-2.3c0.1,0,0.2,0,0.3,0c1.2-0.1,2.2,0.7,2.3,1.9
		c0,0.1,0,0.2,0,0.2c0.4,4.9-2,8.3-5.9,10.8c-0.7,0.4-1.3,0.7-1.8,1c2,2.2,4.2,4.4,6.1,6.7c2.2,2.4,3.7,5.5,4.2,8.7
		c0.4,1.8-0.3,3.6-1.7,4.7c0.3-5.3-2.5-9.1-5.6-12.7C26.4,16.2,19.4,11.3,11,8.8C8.2,7.8,5.1,7.9,2.4,9.1"/>
	<path id="Path_11" class="st0" d="M11.9,21.5c-2.6,0-7.1-3-8.2-5.4c-0.7-1.6,0.1-2.8,1.8-2.8c3.2-0.1,7.1,2.6,8,5.7
		C14,20.4,13.4,21.5,11.9,21.5"/>
	<path id="Path_12" class="st0" d="M23.7,24.1c-2.7-0.9-5.8-2-7.5-5.3c-0.8-1.6,0-2.8,1.8-2.9c3.4,0.1,6.4,2.2,7.8,5.3
		c0.1,0.4,0.2,0.7,0.2,1.1C26,23.5,25.3,24.1,23.7,24.1"/>
</g>
</svg>
